<?xml version="1.0"?>
<svg version="1.1" xmlns="http://www.w3.org/2000/svg" width="90px" height="36px" style=""><path fill="#ffffff" d="M0.76,29.4l0-1.615l1.425-0.57l0-8.93l-1.425-0.57l0-1.615l5.795-0.095l0,1.71l-1.425,0.57l0,8.93l1.425,0.57l0,1.615l-5.795,0z M13.32869,19.14l0.133,1.311s1.805-1.463,3.496-1.463c1.843,0,2.888,1.311,2.888,3.382l0,5.035l1.33,0.475l0,1.52l-5.225,0l0-1.52l1.045-0.475l0-4.522c0-0.874-0.494-1.52-1.292-1.52c-1.178,0-2.033,1.083-2.033,1.083l0,4.959l1.045,0.475l0,1.52l-5.415,0l0-1.52l1.52-0.475l0-6.175l-1.52-0.475l0-1.52z M27.66438,19.14l0.133,1.311s1.805-1.463,3.496-1.463c1.843,0,2.888,1.311,2.888,3.382l0,5.035l1.33,0.475l0,1.52l-5.225,0l0-1.52l1.045-0.475l0-4.522c0-0.874-0.494-1.52-1.292-1.52c-1.178,0-2.033,1.083-2.033,1.083l0,4.959l1.045,0.475l0,1.52l-5.415,0l0-1.52l1.52-0.475l0-6.175l-1.52-0.475l0-1.52z M43.10207,18.95c3.078,0,4.788,1.862,4.788,5.13c0,3.42-1.995,5.51-5.073,5.51c-3.097,0-4.845-1.615-4.845-5.225c0-3.42,2.033-5.415,5.13-5.415z M43.00707,21.23c-1.387,0-2.09,0.76-2.09,3.04c0,2.09,0.608,3.04,1.995,3.04c1.368,0,2.033-0.855,2.033-3.135c0-1.938-0.57-2.945-1.938-2.945z M56.18376,20.755l0-1.52l4.978-0.095l0,1.615l-1.083,0.247l-3.059,8.398l-3.135,0l-3.002-8.341l-0.912-0.304l0-1.52l4.978-0.095l0,1.615l-1.064,0.19l1.729,5.605l1.672-5.548z M76.69445,27.785l0,1.615l-6.042,0l0-1.615l1.425-0.513l-0.456-1.387l-4.218,0l-0.475,1.368l1.482,0.532l0,1.615l-5.738,0l0-1.615l1.387-0.532l4.18-11.191l3.04-0.057l4.085,11.248z M70.99445,23.852l-1.425-4.503l-1.501,4.503l2.926,0z M78.87014,29.4l0-1.615l1.425-0.57l0-8.93l-1.425-0.57l0-1.615l5.795-0.095l0,1.71l-1.425,0.57l0,8.93l1.425,0.57l0,1.615l-5.795,0z"/><path fill="#" d=""/></svg>
